<?xml version="1.0" standalone="no"?>
<!DOCTYPE svg PUBLIC "-//W3C//DTD SVG 20010904//EN"
 "http://www.w3.org/TR/2001/REC-SVG-20010904/DTD/svg10.dtd">
<svg version="1.0" xmlns="http://www.w3.org/2000/svg"
 width="1710.000000pt" height="851.000000pt" viewBox="0 0 1710.000000 851.000000"
 preserveAspectRatio="xMidYMid meet">
<metadata>
Created by potrace 1.15, written by Peter Selinger 2001-2017
</metadata>
<g transform="translate(0.000000,851.000000) scale(0.100000,-0.100000)"
fill="#000000" stroke="none">
<path d="M0 8430 l0 -80 1610 0 1610 0 0 -305 0 -305 -602 -2 -603 -3 -3
-1532 -2 -1533 -400 0 -400 0 0 1535 0 1535 -605 0 -605 0 0 -3870 0 -3870
8550 0 8550 0 0 830 0 830 -31 0 c-23 0 -51 17 -112 66 -147 118 -324 211
-479 250 -135 35 -331 34 -469 -1 -148 -38 -299 -139 -381 -255 l-42 -60 -409
0 -408 0 6 23 c17 55 87 190 135 263 215 317 568 513 1040 575 145 19 425 16
545 -5 140 -25 317 -78 473 -140 l132 -53 0 1242 0 1243 -106 -44 c-324 -134
-598 -184 -904 -164 -445 29 -763 151 -1013 389 -202 192 -324 432 -377 746
-64 380 -14 800 131 1087 125 249 333 454 592 585 100 50 283 109 422 135 102
19 155 22 350 23 150 0 256 -5 305 -13 181 -33 367 -89 517 -157 41 -19 77
-35 79 -35 2 0 4 259 4 575 l0 575 -1500 0 -1500 0 0 -330 0 -330 -400 0 -400
0 0 330 0 330 -395 0 -395 0 0 -1920 0 -1920 -370 0 -370 0 0 1920 0 1920
-2145 0 -2145 0 0 -1920 0 -1920 -375 0 -375 0 0 1920 0 1920 -3365 0 -3365 0
0 -80z m10240 -49 c246 -42 487 -116 718 -221 l107 -48 3 -376 2 -376 -39 0
c-35 0 -56 12 -169 98 -233 176 -455 291 -667 348 -142 37 -377 45 -515 16
-198 -41 -356 -124 -488 -258 -249 -253 -366 -636 -349 -1144 12 -349 81 -604
220 -812 194 -290 479 -438 846 -438 376 0 664 121 1026 429 48 42 66 51 97
51 l38 0 0 -369 0 -369 -143 -61 c-216 -92 -348 -139 -492 -176 -228 -58 -337
-70 -635 -70 -289 1 -367 10 -575 65 -595 158 -1007 589 -1158 1210 -44 181
-58 302 -64 550 -10 433 47 738 197 1047 248 515 697 832 1300 918 150 22 579
13 740 -14z m-5055 -826 c272 -48 452 -134 610 -290 172 -170 267 -373 321
-685 10 -62 18 -184 21 -352 l6 -258 -1003 0 -1003 0 7 -77 c20 -241 129 -466
284 -588 111 -87 259 -149 427 -176 130 -21 390 -17 511 9 206 44 413 133 612
262 51 33 97 60 103 60 5 0 9 -128 9 -324 l0 -324 -102 -36 c-560 -198 -1114
-234 -1605 -106 -525 137 -863 491 -964 1011 -56 291 -42 655 37 926 159 550
584 893 1190 963 115 13 432 4 539 -15z m8885 -1475 l0 -1410 -370 0 -370 0 0
1410 0 1410 370 0 370 0 0 -1410z m-8733 -3565 c197 -26 463 -92 667 -166 l86
-31 0 -324 c0 -203 -4 -324 -10 -324 -5 0 -51 27 -102 61 -327 215 -684 313
-1023 279 -293 -29 -503 -126 -635 -293 l-45 -57 -397 0 c-312 0 -398 3 -398
13 0 22 97 214 141 279 97 142 264 290 429 380 316 173 817 244 1287 183z
m4778 0 c289 -36 507 -101 860 -256 l95 -42 0 -278 0 -279 -147 0 -146 0 -99
66 c-181 120 -353 187 -563 219 -347 52 -660 -29 -888 -229 l-64 -56 -472 2
-471 3 46 80 c148 253 403 487 670 611 170 80 373 137 579 163 118 14 469 12
600 -4z m-8105 -480 l0 -425 -400 0 -400 0 0 425 0 425 400 0 400 0 0 -425z
m5470 0 l0 -425 -375 0 -375 0 0 425 0 425 375 0 375 0 0 -425z m5036 333 c-3
-50 -6 -241 -6 -425 l0 -333 -370 0 -370 0 0 425 0 425 376 0 377 0 -7 -92z
m1554 -333 l0 -425 -370 0 -370 0 0 425 0 425 370 0 370 0 0 -425z"/>
<path d="M4625 7104 c-209 -45 -358 -181 -431 -396 -27 -80 -54 -219 -54 -279
l0 -39 628 0 629 0 -4 78 c-21 363 -170 580 -440 637 -86 19 -237 18 -328 -1z"/>
<path d="M16130 7033 c-80 -9 -170 -36 -250 -75 -69 -33 -101 -56 -171 -127
-73 -74 -94 -103 -138 -192 -95 -193 -136 -443 -113 -701 39 -451 238 -717
597 -795 106 -23 299 -21 405 5 189 46 335 125 527 284 45 37 89 68 97 68 14
0 16 62 16 585 l0 585 -21 0 c-11 0 -53 26 -92 59 -286 234 -574 336 -857 304z"/>
</g>
</svg>
